<mxfile host="app.diagrams.net" modified="2024-01-20T07:48:03.927Z" agent="Mozilla/5.0 (Macintosh; Intel Mac OS X 10_15_7) AppleWebKit/537.36 (KHTML, like Gecko) Chrome/120.0.0.0 Safari/537.36" version="22.1.18" etag="TrAjVGYfFK5WEm3ktADf" type="github">
  <diagram name="第 1 页" id="ybNxYORSMb3ddXj-I2fQ">
    <mxGraphModel>
      <root>
        <mxCell id="0" />
        <mxCell id="1" parent="0" />
      </root>
    </mxGraphModel>
  </diagram>
</mxfile>
